# xmcd
#
# Track frame offsets:
#	150
#	14407
#	32924
#	48921
#	60816
#	77240
#	94261
#	113082
#	130032
#	146854
#
# Disc length: 2319 seconds
#
# Revision: 1
# Processed by: cddbd v1.5.2PL0 Copyright (c) Steve Scherf et al.
# Submitted via: audiograbber 1.83.01
#
DISCID=7f090d0a
DTITLE=Wood - Wood
DYEAR=2007
DGENRE=
TTITLE0=Slide Under
TTITLE1=Circusbluescircus
TTITLE2=Damn Shame
TTITLE3=Reputed Dealers
TTITLE4=Life's Grand
TTITLE5=Easy Monster
TTITLE6=Sweet Lullaby
TTITLE7=Love's On Waitin' Time
TTITLE8=Scream and Holler
TTITLE9=Like Water (Excerpt)
EXTD=
EXTT0=
EXTT1=
EXTT2=
EXTT3=
EXTT4=
EXTT5=
EXTT6=
EXTT7=
EXTT8=
EXTT9=
PLAYORDER=
